<svg width="49" height="48" viewBox="0 0 49 48" fill="none" xmlns="http://www.w3.org/2000/svg">
<path d="M36.5 13C37.0523 13 37.5 12.5523 37.5 12C37.5 11.4477 37.0523 11 36.5 11C35.9477 11 35.5 11.4477 35.5 12C35.5 12.5523 35.9477 13 36.5 13Z" fill="#FF9A00"/>
<path d="M7.5 5H41.5H42.5C43.0513 5 43.5 4.5518 43.5 4C43.5 3.4482 43.0513 3 42.5 3H6.5C5.9487 3 5.5 3.4482 5.5 4C5.5 4.5518 5.9487 5 6.5 5H7.5Z" fill="#A4A4A4"/>
<path d="M25.5 33H23.5V41H25.5V33Z" fill="#FF9A00"/>
<path d="M22.5 43H16.5C15.9487 43 15.5 43.4482 15.5 44C15.5 44.5518 15.9487 45 16.5 45H32.5C33.0513 45 33.5 44.5518 33.5 44C33.5 43.4482 33.0513 43 32.5 43H26.5H22.5Z" fill="#FF9A00"/>
<path d="M5.5 30C5.5 30.5518 5.9487 31 6.5 31H22.5H26.5H42.5C43.0513 31 43.5 30.5518 43.5 30C43.5 29.4482 43.0513 29 42.5 29H41.5H7.5H6.5C5.9487 29 5.5 29.4482 5.5 30Z" fill="#A4A4A4"/>
<path d="M8.5 7V27H40.5V7H8.5ZM39.36 20.43C39.08 20.91 38.47 21.07 37.99 20.79L33.59 18.21L29.36 21.62L31.17 23.26C31.58 23.63 31.61 24.26 31.24 24.67C31.04 24.89 30.77 25 30.5 25C30.26 25 30.02 24.91 29.83 24.74L27.33 22.47C27.22 22.41 27.1 22.33 27.02 22.22C27 22.2 26.99 22.17 26.98 22.15L19.57 15.42L11.5 24.38L11.24 24.67C10.87 25.08 10.24 25.11 9.83 24.74C9.42 24.37 9.39 23.74 9.76 23.33L11.5 21.4L18.76 13.33C18.93 13.13 19.18 13.0101 19.45 13C19.72 12.99 19.98 13.08 20.17 13.26L27.87 20.25L32.87 16.22C33.2 15.96 33.65 15.93 34.01 16.14L39.01 19.07C39.48 19.34 39.64 19.96 39.36 20.43ZM39.5 12C39.5 13.65 38.15 15 36.5 15C34.85 15 33.5 13.65 33.5 12C33.5 11.24 33.79 10.53 34.27 10C34.82 9.39 35.62 9 36.5 9C37.38 9 38.18 9.39 38.73 10C39.21 10.53 39.5 11.24 39.5 12Z" fill="#FF9A00"/>
<path d="M3.5 30C3.5 31.6543 4.8457 33 6.5 33H21.5V41H16.5C14.8457 41 13.5 42.3457 13.5 44C13.5 45.6543 14.8457 47 16.5 47H32.5C34.1543 47 35.5 45.6543 35.5 44C35.5 42.3457 34.1543 41 32.5 41H27.5V33H42.5C44.1543 33 45.5 31.6543 45.5 30C45.5 28.3457 44.1543 27 42.5 27V7C44.1543 7 45.5 5.6543 45.5 4C45.5 2.3457 44.1543 1 42.5 1H6.5C4.8457 1 3.5 2.3457 3.5 4C3.5 5.6543 4.8457 7 6.5 7V27C4.8457 27 3.5 28.3457 3.5 30ZM32.5 43C33.0513 43 33.5 43.4482 33.5 44C33.5 44.5518 33.0513 45 32.5 45H16.5C15.9487 45 15.5 44.5518 15.5 44C15.5 43.4482 15.9487 43 16.5 43H22.5H26.5H32.5ZM23.5 41V33H25.5V41H23.5ZM5.5 4C5.5 3.4482 5.9487 3 6.5 3H42.5C43.0513 3 43.5 3.4482 43.5 4C43.5 4.5518 43.0513 5 42.5 5H41.5H7.5H6.5C5.9487 5 5.5 4.5518 5.5 4ZM40.5 7V27H8.5V7H40.5ZM7.5 29H41.5H42.5C43.0513 29 43.5 29.4482 43.5 30C43.5 30.5518 43.0513 31 42.5 31H26.5H22.5H6.5C5.9487 31 5.5 30.5518 5.5 30C5.5 29.4482 5.9487 29 6.5 29H7.5Z" fill="#2D3047"/>
<path d="M40.5 7V10H11.5V27H8.5V7H40.5Z" fill="#D3D3D3"/>
<path d="M11.2432 24.6689L19.5708 15.416L26.9769 22.149C26.9927 22.1725 26.997 22.2001 27.0151 22.2226C27.1038 22.3331 27.2155 22.4112 27.3332 22.4729L29.8272 24.7402C30.019 24.9141 30.2598 25 30.4995 25C30.7715 25 31.0425 24.8896 31.2397 24.6729C31.6113 24.2637 31.5815 23.6319 31.1728 23.2598L29.3637 21.6151L33.5898 18.2119L37.9946 20.792C38.4697 21.0703 39.083 20.9111 39.3628 20.4346C39.6421 19.958 39.4819 19.3448 39.0054 19.0655L34.0054 16.1368C33.648 15.9268 33.1963 15.96 32.8726 16.2218L27.8658 20.2535L20.1729 13.2599C19.9756 13.0812 19.7168 12.9865 19.4498 13.0011C19.1842 13.0148 18.9347 13.1329 18.7569 13.3312L9.75689 23.3312C9.38729 23.7414 9.42049 24.3742 9.83109 24.7433C10.2417 25.1133 10.8745 25.0801 11.2432 24.6689ZM36.5 15C38.1543 15 39.5 13.6543 39.5 12C39.5 10.3457 38.1543 9 36.5 9C34.8457 9 33.5 10.3457 33.5 12C33.5 13.6543 34.8457 15 36.5 15ZM36.5 11C37.0513 11 37.5 11.4482 37.5 12C37.5 12.5518 37.0513 13 36.5 13C35.9487 13 35.5 12.5518 35.5 12C35.5 11.4482 35.9487 11 36.5 11Z" fill="#2D3047"/>
</svg>
