<svg width="48" height="48" viewBox="0 0 48 48" fill="none" xmlns="http://www.w3.org/2000/svg">
<path d="M10.125 22.875H37.875V44.625H10.125V22.875Z" fill="#D8993A"/>
<path d="M27.168 37.125C26.703 35.817 25.467 34.875 24 34.875C22.533 34.875 21.2963 35.817 20.832 37.125H27.168ZM20.832 39.375C21.297 40.683 22.533 41.625 24 41.625C25.467 41.625 26.7038 40.683 27.168 39.375H20.832Z" fill="#878787"/>
<path d="M19.875 37.125H28.125V39.375H19.875V37.125Z" fill="#EEEEEE"/>
<path d="M19.875 25.125H28.125V31.875H19.875V25.125Z" fill="#2D3047"/>
<path d="M24 28.1253C23.8011 28.1253 23.6103 28.0463 23.4697 27.9056C23.329 27.765 23.25 27.5742 23.25 27.3753C23.25 27.1764 23.329 26.9856 23.4697 26.845C23.6103 26.7043 23.8011 26.6253 24 26.6253C24.1989 26.6253 24.3897 26.7043 24.5303 26.845C24.671 26.9856 24.75 27.1764 24.75 27.3753C24.75 27.5742 24.671 27.765 24.5303 27.9056C24.3897 28.0463 24.1989 28.1253 24 28.1253ZM30.375 16.7838H17.625V4.97205C17.625 4.14105 18.2985 3.4668 19.1302 3.4668C19.7985 3.4668 20.4247 3.86355 20.649 4.4928C20.7652 4.81905 20.7645 5.1498 20.6782 5.45055H30.375V16.7838Z" fill="#EEEEEE"/>
<path d="M7.875 16.125H40.125V22.875H7.875V16.125Z" fill="#FF9A00"/>
<path d="M31.9432 3.375H31.8C32.664 3.375 33.375 4.086 33.375 4.95C33.375 5.46675 33.1192 5.946 32.7 6.2385H20.1C20.3078 6.09381 20.4777 5.90114 20.5952 5.67684C20.7127 5.45254 20.7743 5.20321 20.775 4.95C20.7726 4.53301 20.6059 4.13378 20.3111 3.83892C20.0162 3.54406 19.617 3.37736 19.2 3.375" fill="#D3D3D3"/>
<path d="M37.875 45H10.125C10.0255 45 9.93016 44.9605 9.85983 44.8902C9.78951 44.8198 9.75 44.7245 9.75 44.625V22.875C9.75 22.7755 9.78951 22.6802 9.85983 22.6098C9.93016 22.5395 10.0255 22.5 10.125 22.5H37.875C37.9745 22.5 38.0698 22.5395 38.1402 22.6098C38.2105 22.6802 38.25 22.7755 38.25 22.875V44.625C38.25 44.7245 38.2105 44.8198 38.1402 44.8902C38.0698 44.9605 37.9745 45 37.875 45ZM10.5 44.25H37.5V23.25H10.5V44.25Z" fill="#21243A"/>
<path d="M28.125 32.25H19.875C19.7755 32.25 19.6802 32.2105 19.6098 32.1402C19.5395 32.0698 19.5 31.9745 19.5 31.875V25.125C19.5 25.0255 19.5395 24.9302 19.6098 24.8598C19.6802 24.7895 19.7755 24.75 19.875 24.75H28.125C28.2245 24.75 28.3198 24.7895 28.3902 24.8598C28.4605 24.9302 28.5 25.0255 28.5 25.125V31.875C28.5 31.9745 28.4605 32.0698 28.3902 32.1402C28.3198 32.2105 28.2245 32.25 28.125 32.25ZM20.25 31.5H27.75V25.5H20.25V31.5ZM28.125 39.75H19.875C19.7755 39.75 19.6802 39.7105 19.6098 39.6402C19.5395 39.5698 19.5 39.4745 19.5 39.375V37.125C19.5 37.0255 19.5395 36.9302 19.6098 36.8598C19.6802 36.7895 19.7755 36.75 19.875 36.75H28.125C28.2245 36.75 28.3198 36.7895 28.3902 36.8598C28.4605 36.9302 28.5 37.0255 28.5 37.125V39.375C28.5 39.4745 28.4605 39.5698 28.3902 39.6402C28.3198 39.7105 28.2245 39.75 28.125 39.75ZM20.25 39H27.75V37.5H20.25V39Z" fill="#21243A"/>
<path d="M24 28.5C23.3798 28.5 22.875 27.9952 22.875 27.375C22.875 26.7548 23.3798 26.25 24 26.25C24.6202 26.25 25.125 26.7548 25.125 27.375C25.125 27.9952 24.6202 28.5 24 28.5ZM24 27C23.7937 27 23.625 27.1687 23.625 27.375C23.625 27.5813 23.7937 27.75 24 27.75C24.2062 27.75 24.375 27.5813 24.375 27.375C24.375 27.1687 24.2062 27 24 27ZM24 21C23.9005 21 23.8052 20.9605 23.7348 20.8902C23.6645 20.8198 23.625 20.7245 23.625 20.625V18.375C23.625 18.2755 23.6645 18.1802 23.7348 18.1098C23.8052 18.0395 23.9005 18 24 18C24.0995 18 24.1948 18.0395 24.2652 18.1098C24.3355 18.1802 24.375 18.2755 24.375 18.375V20.625C24.375 20.7245 24.3355 20.8198 24.2652 20.8902C24.1948 20.9605 24.0995 21 24 21Z" fill="#21243A"/>
<path d="M24 30.75C23.9005 30.75 23.8052 30.7105 23.7348 30.6402C23.6645 30.5698 23.625 30.4745 23.625 30.375V28.125C23.625 28.0255 23.6645 27.9302 23.7348 27.8598C23.8052 27.7895 23.9005 27.75 24 27.75C24.0995 27.75 24.1948 27.7895 24.2652 27.8598C24.3355 27.9302 24.375 28.0255 24.375 28.125V30.375C24.375 30.4745 24.3355 30.5698 24.2652 30.6402C24.1948 30.7105 24.0995 30.75 24 30.75ZM26.625 25.5H21.375C21.2755 25.5 21.1802 25.4605 21.1098 25.3902C21.0395 25.3198 21 25.2245 21 25.125V22.125C21 20.4705 22.3455 19.125 24 19.125C25.6545 19.125 27 20.4705 27 22.125V25.125C27 25.2245 26.9605 25.3198 26.8902 25.3902C26.8198 25.4605 26.7245 25.5 26.625 25.5ZM21.75 24.75H26.25V22.125C26.25 20.8845 25.2405 19.875 24 19.875C22.7595 19.875 21.75 20.8845 21.75 22.125V24.75Z" fill="#21243A"/>
<path d="M40.125 23.25H7.875C7.77554 23.25 7.68016 23.2105 7.60983 23.1402C7.53951 23.0698 7.5 22.9745 7.5 22.875V16.125C7.5 16.0255 7.53951 15.9302 7.60983 15.8598C7.68016 15.7895 7.77554 15.75 7.875 15.75H40.125C40.2245 15.75 40.3198 15.7895 40.3902 15.8598C40.4605 15.9302 40.5 16.0255 40.5 16.125V22.875C40.5 22.9745 40.4605 23.0698 40.3902 23.1402C40.3198 23.2105 40.2245 23.25 40.125 23.25ZM8.25 22.5H39.75V16.5H8.25V22.5Z" fill="#21243A"/>
<path d="M23.2035 13.3275C23.1052 13.3276 23.0078 13.3084 22.9169 13.2708C22.8261 13.2332 22.7435 13.1781 22.674 13.1085L21.609 12.0435C21.5395 11.974 21.4844 11.8915 21.4468 11.8007C21.4092 11.7099 21.3898 11.6126 21.3898 11.5144C21.3898 11.4161 21.4092 11.3188 21.4468 11.228C21.4844 11.1372 21.5395 11.0547 21.609 10.9852C21.6785 10.9158 21.761 10.8606 21.8518 10.823C21.9426 10.7854 22.0399 10.7661 22.1381 10.7661C22.2364 10.7661 22.3337 10.7854 22.4245 10.823C22.5153 10.8606 22.5978 10.9158 22.6673 10.9852L23.2035 11.5215L25.3328 9.393C25.4022 9.32351 25.4847 9.26839 25.5755 9.23079C25.6663 9.19318 25.7636 9.17383 25.8619 9.17383C25.9601 9.17383 26.0575 9.19318 26.1482 9.23079C26.239 9.26839 26.3215 9.32351 26.391 9.393C26.4605 9.46248 26.5156 9.54498 26.5532 9.63576C26.5908 9.72655 26.6102 9.82386 26.6102 9.92212C26.6102 10.0204 26.5908 10.1177 26.5532 10.2085C26.5156 10.2993 26.4605 10.3818 26.391 10.4512L23.733 13.1092C23.5922 13.249 23.4019 13.3274 23.2035 13.3275Z" fill="#878787"/>
<path d="M30.375 16.5H17.625C17.5255 16.5 17.4302 16.4605 17.3598 16.3902C17.2895 16.3198 17.25 16.2245 17.25 16.125V4.875C17.25 4.77554 17.2895 4.68016 17.3598 4.60984C17.4302 4.53951 17.5255 4.5 17.625 4.5C17.7245 4.5 17.8198 4.53951 17.8902 4.60984C17.9605 4.68016 18 4.77554 18 4.875V15.75H30V6.375C30 6.27554 30.0395 6.18016 30.1098 6.10983C30.1802 6.03951 30.2755 6 30.375 6C30.4745 6 30.5698 6.03951 30.6402 6.10983C30.7105 6.18016 30.75 6.27554 30.75 6.375V16.125C30.75 16.2245 30.7105 16.3198 30.6402 16.3902C30.5698 16.4605 30.4745 16.5 30.375 16.5Z" fill="#21243A"/>
<path d="M32.7 6.63499H20.1C20.0199 6.63535 19.9419 6.61008 19.8772 6.56288C19.8125 6.51568 19.7647 6.44903 19.7406 6.37267C19.7166 6.29631 19.7176 6.21426 19.7435 6.13852C19.7695 6.06278 19.8189 5.99733 19.8848 5.95174C20.2073 5.72599 20.4 5.35924 20.4 4.96999C20.3974 4.65238 20.2701 4.34853 20.0454 4.12401C19.8208 3.8995 19.5169 3.77234 19.1993 3.76999C18.5378 3.76999 17.9993 4.30849 17.9993 4.96999C17.995 5.06645 17.9538 5.15756 17.884 5.22437C17.8143 5.29117 17.7215 5.3285 17.625 5.3286C17.5284 5.32869 17.4356 5.29155 17.3657 5.22488C17.2959 5.15822 17.2544 5.06719 17.25 4.97074C17.25 3.98149 17.991 3.16174 18.9473 3.03724C18.9828 3.02671 19.0197 3.0214 19.0568 3.02149H31.9432C31.9815 3.02149 32.0182 3.02749 32.0527 3.03724C32.5219 3.0992 32.9526 3.32939 33.2647 3.68502C33.5769 4.04065 33.7493 4.49753 33.75 4.97074C33.75 5.60449 33.438 6.20149 32.9145 6.56749C32.8515 6.61118 32.7767 6.63472 32.7 6.63499ZM20.9205 5.88499H32.5732C32.8418 5.65699 33 5.32324 33 4.97074C33 4.30924 32.4615 3.77074 31.8 3.77074H20.73C20.9636 4.06658 21.1061 4.42406 21.1399 4.79951C21.1737 5.17496 21.0975 5.55214 20.9205 5.88499ZM23.2035 13.703C22.9035 13.703 22.6208 13.5867 22.4085 13.3745L21.3435 12.3095C21.1313 12.098 21.0142 11.8152 21.0142 11.5145C21.0142 11.2137 21.1313 10.9317 21.3435 10.7195C21.5544 10.5093 21.84 10.3912 22.1378 10.3912C22.4355 10.3912 22.7211 10.5093 22.932 10.7195L23.2028 10.9902L25.0658 9.12724C25.4918 8.70199 26.2313 8.70349 26.6543 9.12724C26.8665 9.33874 26.9835 9.62149 26.9835 9.92224C26.9835 10.2215 26.8665 10.5042 26.6543 10.7165L23.9963 13.3745C23.8925 13.4791 23.769 13.562 23.6329 13.6184C23.4968 13.6748 23.3508 13.7036 23.2035 13.703ZM22.1385 11.141C22.0643 11.1407 21.9918 11.1625 21.9301 11.2037C21.8684 11.2448 21.8203 11.3033 21.792 11.3719C21.7637 11.4404 21.7564 11.5158 21.7711 11.5885C21.7858 11.6612 21.8218 11.7278 21.8745 11.78L22.9395 12.845C23.0107 12.9124 23.1049 12.95 23.203 12.9502C23.301 12.9503 23.3954 12.9129 23.4667 12.8457L26.1255 10.187C26.1955 10.1168 26.2349 10.0217 26.2349 9.92261C26.2349 9.82348 26.1955 9.7284 26.1255 9.65824C26.0544 9.59038 25.9598 9.55252 25.8615 9.55252C25.7632 9.55252 25.6686 9.59038 25.5975 9.65824L23.469 11.7867C23.3987 11.857 23.3033 11.8965 23.2039 11.8965C23.1044 11.8965 23.0091 11.857 22.9387 11.7867L22.4025 11.2505C22.368 11.2156 22.3269 11.1879 22.2815 11.1691C22.2362 11.1503 22.1876 11.1408 22.1385 11.141ZM27.1687 37.5005H20.832C20.7719 37.5005 20.7127 37.4861 20.6594 37.4584C20.606 37.4308 20.5601 37.3907 20.5255 37.3416C20.4908 37.2925 20.4685 37.2358 20.4604 37.1762C20.4523 37.1167 20.4586 37.0561 20.4788 36.9995C20.7366 36.2708 21.2133 35.6397 21.8436 35.1923C22.4739 34.745 23.2271 34.5034 24 34.5005C24.7729 34.5034 25.5261 34.745 26.1564 35.1923C26.7867 35.6397 27.2634 36.2708 27.5212 36.9995C27.5418 37.056 27.5484 37.1167 27.5404 37.1763C27.5325 37.2359 27.5103 37.2927 27.4757 37.3419C27.441 37.3911 27.3951 37.4312 27.3416 37.4588C27.2882 37.4864 27.2289 37.5007 27.1687 37.5005ZM21.4163 36.7505H26.5845C26.055 35.8355 25.074 35.2505 24.0007 35.2505C22.9275 35.2505 21.9458 35.8355 21.4163 36.7505ZM24 42.0005C23.2271 41.9976 22.4739 41.756 21.8436 41.3086C21.2133 40.8613 20.7366 40.2301 20.4788 39.5015C20.4582 39.445 20.4516 39.3843 20.4596 39.3247C20.4675 39.2651 20.4897 39.2082 20.5243 39.1591C20.559 39.1099 20.6049 39.0698 20.6584 39.0422C20.7118 39.0146 20.7711 39.0003 20.8312 39.0005H27.168C27.2281 39.0005 27.2873 39.0149 27.3406 39.0426C27.394 39.0702 27.4399 39.1103 27.4745 39.1594C27.5092 39.2085 27.5315 39.2652 27.5396 39.3247C27.5477 39.3843 27.5414 39.4449 27.5212 39.5015C27.2634 40.2301 26.7867 40.8613 26.1564 41.3086C25.5261 41.756 24.7729 41.9976 24 42.0005ZM21.4163 39.7505C21.9458 40.6655 22.9268 41.2505 24 41.2505C25.0732 41.2505 26.0542 40.6655 26.5837 39.7505H21.4163Z" fill="#21243A"/>
</svg>
